<svg id="SvgjsSvg1006" width="1099.515625" height="1766" xmlns="http://www.w3.org/2000/svg" version="1.1" xmlns:xlink="http://www.w3.org/1999/xlink" xmlns:svgjs="http://svgjs.com/svgjs"><defs id="SvgjsDefs1007"><marker id="SvgjsMarker1022" markerWidth="14" markerHeight="10" refX="10" refY="5" viewBox="0 0 14 10" orient="auto" markerUnits="userSpaceOnUse" stroke-dasharray="0,0"><path id="SvgjsPath1023" d="M0,0 L14,5 L0,10 L0,0" fill="#323232" stroke="#323232" stroke-width="1"></path></marker><marker id="SvgjsMarker1078" markerWidth="14" markerHeight="10" refX="10" refY="5" viewBox="0 0 14 10" orient="auto" markerUnits="userSpaceOnUse" stroke-dasharray="0,0"><path id="SvgjsPath1079" d="M0,0 L14,5 L0,10 L0,0" fill="#323232" stroke="#323232" stroke-width="1"></path></marker><marker id="SvgjsMarker1168" markerWidth="14" markerHeight="10" refX="10" refY="5" viewBox="0 0 14 10" orient="auto" markerUnits="userSpaceOnUse" stroke-dasharray="0,0"><path id="SvgjsPath1169" d="M0,0 L14,5 L0,10 L0,0" fill="#323232" stroke="#323232" stroke-width="1"></path></marker><marker id="SvgjsMarker1182" markerWidth="14" markerHeight="10" refX="10" refY="5" viewBox="0 0 14 10" orient="auto" markerUnits="userSpaceOnUse" stroke-dasharray="0,0"><path id="SvgjsPath1183" d="M0,0 L14,5 L0,10 L0,0" fill="#323232" stroke="#323232" stroke-width="1"></path></marker><marker id="SvgjsMarker1196" markerWidth="14" markerHeight="10" refX="10" refY="5" viewBox="0 0 14 10" orient="auto" markerUnits="userSpaceOnUse" stroke-dasharray="0,0"><path id="SvgjsPath1197" d="M0,0 L14,5 L0,10 L0,0" fill="#323232" stroke="#323232" stroke-width="1"></path></marker><marker id="SvgjsMarker1200" markerWidth="14" markerHeight="10" refX="10" refY="5" viewBox="0 0 14 10" orient="auto" markerUnits="userSpaceOnUse" stroke-dasharray="0,0"><path id="SvgjsPath1201" d="M0,0 L14,5 L0,10 L0,0" fill="#323232" stroke="#323232" stroke-width="1"></path></marker><marker id="SvgjsMarker1214" markerWidth="14" markerHeight="10" refX="10" refY="5" viewBox="0 0 14 10" orient="auto" markerUnits="userSpaceOnUse" stroke-dasharray="0,0"><path id="SvgjsPath1215" d="M0,0 L14,5 L0,10 L0,0" fill="#323232" stroke="#323232" stroke-width="1"></path></marker><marker id="SvgjsMarker1228" markerWidth="14" markerHeight="10" refX="10" refY="5" viewBox="0 0 14 10" orient="auto" markerUnits="userSpaceOnUse" stroke-dasharray="0,0"><path id="SvgjsPath1229" d="M0,0 L14,5 L0,10 L0,0" fill="#323232" stroke="#323232" stroke-width="1"></path></marker><marker id="SvgjsMarker1232" markerWidth="14" markerHeight="10" refX="10" refY="5" viewBox="0 0 14 10" orient="auto" markerUnits="userSpaceOnUse" stroke-dasharray="0,0"><path id="SvgjsPath1233" d="M0,0 L14,5 L0,10 L0,0" fill="#323232" stroke="#323232" stroke-width="1"></path></marker><marker id="SvgjsMarker1242" markerWidth="14" markerHeight="10" refX="10" refY="5" viewBox="0 0 14 10" orient="auto" markerUnits="userSpaceOnUse" stroke-dasharray="0,0"><path id="SvgjsPath1243" d="M0,0 L14,5 L0,10 L0,0" fill="#323232" stroke="#323232" stroke-width="1"></path></marker><marker id="SvgjsMarker1256" markerWidth="14" markerHeight="10" refX="10" refY="5" viewBox="0 0 14 10" orient="auto" markerUnits="userSpaceOnUse" stroke-dasharray="0,0"><path id="SvgjsPath1257" d="M0,0 L14,5 L0,10 L0,0" fill="#323232" stroke="#323232" stroke-width="1"></path></marker><marker id="SvgjsMarker1326" markerWidth="14" markerHeight="10" refX="10" refY="5" viewBox="0 0 14 10" orient="auto" markerUnits="userSpaceOnUse" stroke-dasharray="0,0"><path id="SvgjsPath1327" d="M0,0 L14,5 L0,10 L0,0" fill="#323232" stroke="#323232" stroke-width="1"></path></marker></defs><g id="SvgjsG1008" transform="translate(33.515625,765)"><path id="SvgjsPath1009" d="M 0 0L 1041 0L 1041 409L 0 409Z" stroke="rgba(50,50,50,1)" stroke-width="2" fill-opacity="1" fill="#ffffff"></path><g id="SvgjsG1010"><text id="SvgjsText1011" font-family="微软雅黑" text-anchor="middle" font-size="13px" width="1021px" fill="#323232" font-weight="400" align="middle" lineHeight="125%" anchor="middle" family="微软雅黑" size="13px" weight="400" font-style="" opacity="1" y="193.375" transform="rotate(0)"></text></g></g><g id="SvgjsG1012" transform="translate(33.515625,505)"><path id="SvgjsPath1013" d="M 0 0L 1041 0L 1041 224L 0 224Z" stroke="rgba(50,50,50,1)" stroke-width="2" fill-opacity="1" fill="#ffffff"></path><g id="SvgjsG1014"><text id="SvgjsText1015" font-family="微软雅黑" text-anchor="middle" font-size="13px" width="1021px" fill="#323232" font-weight="400" align="middle" lineHeight="125%" anchor="middle" family="微软雅黑" size="13px" weight="400" font-style="" opacity="1" y="100.875" transform="rotate(0)"></text></g></g><g id="SvgjsG1016" transform="translate(33.515625,25)"><path id="SvgjsPath1017" d="M 0 0L 1041 0L 1041 436L 0 436Z" stroke="rgba(50,50,50,1)" stroke-width="2" fill-opacity="1" fill="#ffffff"></path><g id="SvgjsG1018"><text id="SvgjsText1019" font-family="微软雅黑" text-anchor="middle" font-size="13px" width="1021px" fill="#323232" font-weight="400" align="middle" lineHeight="125%" anchor="middle" family="微软雅黑" size="13px" weight="400" font-style="" opacity="1" y="206.875" transform="rotate(0)"></text></g></g><g id="SvgjsG1020"><path id="SvgjsPath1021" d="M156.703125 206L555.203125 206L555.203125 206L953.703125 206" stroke="#323232" stroke-width="2" fill="none" marker-end="url(#SvgjsMarker1022)"></path><rect id="SvgjsRect1024" width="39" height="16" x="535.703125" y="198" fill="#ffffff"></rect><text id="SvgjsText1025" font-family="微软雅黑" text-anchor="middle" font-size="13px" width="39px" fill="#323232" font-weight="400" align="top" lineHeight="16px" anchor="middle" family="微软雅黑" size="13px" weight="400" font-style="" opacity="1" y="195.375" transform="rotate(0)"><tspan id="SvgjsTspan1026" dy="16" x="555.203125"><tspan id="SvgjsTspan1027" style="text-decoration:;">时间轴</tspan></tspan></text></g><g id="SvgjsG1028" transform="translate(26.703125,241.5)"><path id="SvgjsPath1029" d="M 0 0L 120 0L 120 37L 0 37Z" stroke="none" fill="none"></path><g id="SvgjsG1030"><text id="SvgjsText1031" font-family="微软雅黑" text-anchor="middle" font-size="13px" width="120px" fill="#323232" font-weight="400" align="middle" lineHeight="125%" anchor="middle" family="微软雅黑" size="13px" weight="400" font-style="" opacity="1" y="7.375" transform="rotate(0)"><tspan id="SvgjsTspan1032" dy="16" x="60"><tspan id="SvgjsTspan1033" style="text-decoration:;">线程1</tspan></tspan></text></g></g><g id="SvgjsG1034" transform="translate(155.703125,241.5)"><path id="SvgjsPath1035" d="M 0 4Q 0 0 4 0L 208.25 0Q 212.25 0 212.25 4L 212.25 33Q 212.25 37 208.25 37L 4 37Q 0 37 0 33Z" stroke="rgba(50,50,50,1)" stroke-width="2" fill-opacity="1" fill="#fff176"></path><g id="SvgjsG1036"><text id="SvgjsText1037" font-family="微软雅黑" text-anchor="middle" font-size="13px" width="193px" fill="#323232" font-weight="400" align="middle" lineHeight="125%" anchor="middle" family="微软雅黑" size="13px" weight="400" font-style="" opacity="1" y="7.375" transform="rotate(0)"><tspan id="SvgjsTspan1038" dy="16" x="106.5"><tspan id="SvgjsTspan1039" style="text-decoration:;">更新数据库</tspan></tspan></text></g></g><g id="SvgjsG1040" transform="translate(458.703125,136)"><path id="SvgjsPath1041" d="M 0 0L 199 0L 199 37L 0 37Z" stroke="none" fill="none"></path><g id="SvgjsG1042"><text id="SvgjsText1043" font-family="微软雅黑" text-anchor="middle" font-size="13px" width="199px" fill="#323232" font-weight="400" align="middle" lineHeight="125%" anchor="middle" family="微软雅黑" size="13px" weight="400" font-style="" opacity="1" y="7.375" transform="rotate(0)"><tspan id="SvgjsTspan1044" dy="16" x="99.5"><tspan id="SvgjsTspan1045" style="text-decoration:;">先更新数据库，再更新缓存</tspan></tspan></text></g></g><g id="SvgjsG1046" transform="translate(196.703125,291.5)"><path id="SvgjsPath1047" d="M 0 4Q 0 0 4 0L 147 0Q 151 0 151 4L 151 33Q 151 37 147 37L 4 37Q 0 37 0 33Z" stroke="rgba(50,50,50,1)" stroke-width="2" fill-opacity="1" fill="#fff176"></path><g id="SvgjsG1048"><text id="SvgjsText1049" font-family="微软雅黑" text-anchor="middle" font-size="13px" width="131px" fill="#323232" font-weight="400" align="middle" lineHeight="125%" anchor="middle" family="微软雅黑" size="13px" weight="400" font-style="" opacity="1" y="7.375" transform="rotate(0)"><tspan id="SvgjsTspan1050" dy="16" x="75.5"><tspan id="SvgjsTspan1051" style="text-decoration:;">更新数据库</tspan></tspan></text></g></g><g id="SvgjsG1052" transform="translate(347.703125,291.5)"><path id="SvgjsPath1053" d="M 0 4Q 0 0 4 0L 135.5 0Q 139.5 0 139.5 4L 139.5 33Q 139.5 37 135.5 37L 4 37Q 0 37 0 33Z" stroke="rgba(50,50,50,1)" stroke-width="2" fill-opacity="1" fill="#4dd0e1"></path><g id="SvgjsG1054"><text id="SvgjsText1055" font-family="微软雅黑" text-anchor="middle" font-size="13px" width="120px" fill="#323232" font-weight="400" align="middle" lineHeight="125%" anchor="middle" family="微软雅黑" size="13px" weight="400" font-style="" opacity="1" y="7.375" transform="rotate(0)"><tspan id="SvgjsTspan1056" dy="16" x="70"><tspan id="SvgjsTspan1057" style="text-decoration:;">更新缓存</tspan></tspan></text></g></g><g id="SvgjsG1058" transform="translate(508.078125,241.5)"><path id="SvgjsPath1059" d="M 0 4Q 0 0 4 0L 96.25 0Q 100.25 0 100.25 4L 100.25 33Q 100.25 37 96.25 37L 4 37Q 0 37 0 33Z" stroke="rgba(50,50,50,1)" stroke-width="2" fill-opacity="1" fill="#f44336"></path><g id="SvgjsG1060"><text id="SvgjsText1061" font-family="微软雅黑" text-anchor="middle" font-size="13px" width="81px" fill="#323232" font-weight="400" align="middle" lineHeight="125%" anchor="middle" family="微软雅黑" size="13px" weight="400" font-style="" opacity="1" y="7.375" transform="rotate(0)"><tspan id="SvgjsTspan1062" dy="16" x="50.5"><tspan id="SvgjsTspan1063" style="text-decoration:;">脏数据产生</tspan></tspan></text></g></g><g id="SvgjsG1064" transform="translate(642.703125,264)"><path id="SvgjsPath1065" d="M 0 0L 164 0L 164 40L 0 40Z" stroke="none" fill="none"></path><g id="SvgjsG1066"><text id="SvgjsText1067" font-family="微软雅黑" text-anchor="middle" font-size="13px" width="164px" fill="#323232" font-weight="400" align="middle" lineHeight="125%" anchor="middle" family="微软雅黑" size="13px" weight="400" font-style="" opacity="1" y="8.875" transform="rotate(0)"><tspan id="SvgjsTspan1068" dy="16" x="82"><tspan id="SvgjsTspan1069" style="text-decoration:;">没有把最新的值写入缓存</tspan></tspan></text></g></g><g id="SvgjsG1070" transform="translate(26.703125,290)"><path id="SvgjsPath1071" d="M 0 0L 120 0L 120 40L 0 40Z" stroke="none" fill="none"></path><g id="SvgjsG1072"><text id="SvgjsText1073" font-family="微软雅黑" text-anchor="middle" font-size="13px" width="120px" fill="#323232" font-weight="400" align="middle" lineHeight="125%" anchor="middle" family="微软雅黑" size="13px" weight="400" font-style="" opacity="1" y="8.875" transform="rotate(0)"><tspan id="SvgjsTspan1074" dy="16" x="60"><tspan id="SvgjsTspan1075" style="text-decoration:;">线程2</tspan></tspan></text></g></g><g id="SvgjsG1076"><path id="SvgjsPath1077" d="M156.703125 576L555.203125 576L555.203125 576L953.703125 576" stroke="#323232" stroke-width="2" fill="none" marker-end="url(#SvgjsMarker1078)"></path><rect id="SvgjsRect1080" width="39" height="16" x="535.703125" y="568" fill="#ffffff"></rect><text id="SvgjsText1081" font-family="微软雅黑" text-anchor="middle" font-size="13px" width="39px" fill="#323232" font-weight="400" align="top" lineHeight="16px" anchor="middle" family="微软雅黑" size="13px" weight="400" font-style="" opacity="1" y="565.375" transform="rotate(0)"><tspan id="SvgjsTspan1082" dy="16" x="555.203125"><tspan id="SvgjsTspan1083" style="text-decoration:;">时间轴</tspan></tspan></text></g><g id="SvgjsG1084" transform="translate(26.703125,611.5)"><path id="SvgjsPath1085" d="M 0 0L 120 0L 120 37L 0 37Z" stroke="none" fill="none"></path><g id="SvgjsG1086"><text id="SvgjsText1087" font-family="微软雅黑" text-anchor="middle" font-size="13px" width="120px" fill="#323232" font-weight="400" align="middle" lineHeight="125%" anchor="middle" family="微软雅黑" size="13px" weight="400" font-style="" opacity="1" y="7.375" transform="rotate(0)"><tspan id="SvgjsTspan1088" dy="16" x="60"><tspan id="SvgjsTspan1089" style="text-decoration:;">线程1</tspan></tspan></text></g></g><g id="SvgjsG1090" transform="translate(152.515625,611.5)"><path id="SvgjsPath1091" d="M 0 4Q 0 0 4 0L 129 0Q 133 0 133 4L 133 33Q 133 37 129 37L 4 37Q 0 37 0 33Z" stroke="rgba(50,50,50,1)" stroke-width="2" fill-opacity="1" fill="#e57373"></path><g id="SvgjsG1092"><text id="SvgjsText1093" font-family="微软雅黑" text-anchor="middle" font-size="13px" width="113px" fill="#323232" font-weight="400" align="middle" lineHeight="125%" anchor="middle" family="微软雅黑" size="13px" weight="400" font-style="" opacity="1" y="7.375" transform="rotate(0)"><tspan id="SvgjsTspan1094" dy="16" x="66.5"><tspan id="SvgjsTspan1095" style="text-decoration:;">删除缓存</tspan></tspan></text></g></g><g id="SvgjsG1096" transform="translate(458.703125,506)"><path id="SvgjsPath1097" d="M 0 0L 199 0L 199 37L 0 37Z" stroke="none" fill="none"></path><g id="SvgjsG1098"><text id="SvgjsText1099" font-family="微软雅黑" text-anchor="middle" font-size="13px" width="199px" fill="#323232" font-weight="400" align="middle" lineHeight="125%" anchor="middle" family="微软雅黑" size="13px" weight="400" font-style="" opacity="1" y="7.375" transform="rotate(0)"><tspan id="SvgjsTspan1100" dy="16" x="99.5"><tspan id="SvgjsTspan1101" style="text-decoration:;">先删除缓存，再更新数据库</tspan></tspan></text></g></g><g id="SvgjsG1102" transform="translate(285.515625,611.5)"><path id="SvgjsPath1103" d="M 0 4Q 0 0 4 0L 230 0Q 234 0 234 4L 234 33Q 234 37 230 37L 4 37Q 0 37 0 33Z" stroke="rgba(50,50,50,1)" stroke-width="2" fill-opacity="1" fill="#fff176"></path><g id="SvgjsG1104"><text id="SvgjsText1105" font-family="微软雅黑" text-anchor="middle" font-size="13px" width="214px" fill="#323232" font-weight="400" align="middle" lineHeight="125%" anchor="middle" family="微软雅黑" size="13px" weight="400" font-style="" opacity="1" y="7.375" transform="rotate(0)"><tspan id="SvgjsTspan1106" dy="16" x="117"><tspan id="SvgjsTspan1107" style="text-decoration:;">更新数据库</tspan></tspan></text></g></g><g id="SvgjsG1108" transform="translate(176.328125,661.5)"><path id="SvgjsPath1109" d="M 0 4Q 0 0 4 0L 81.375 0Q 85.375 0 85.375 4L 85.375 33Q 85.375 37 81.375 37L 4 37Q 0 37 0 33Z" stroke="rgba(50,50,50,1)" stroke-width="2" fill-opacity="1" fill="#ba68c8"></path><g id="SvgjsG1110"><text id="SvgjsText1111" font-family="微软雅黑" text-anchor="middle" font-size="13px" width="66px" fill="#323232" font-weight="400" align="middle" lineHeight="125%" anchor="middle" family="微软雅黑" size="13px" weight="400" font-style="" opacity="1" y="7.375" transform="rotate(0)"><tspan id="SvgjsTspan1112" dy="16" x="43"><tspan id="SvgjsTspan1113" style="text-decoration:;">查询数据库</tspan></tspan></text></g></g><g id="SvgjsG1114" transform="translate(261.953125,661.5)"><path id="SvgjsPath1115" d="M 0 4Q 0 0 4 0L 75.75 0Q 79.75 0 79.75 4L 79.75 33Q 79.75 37 75.75 37L 4 37Q 0 37 0 33Z" stroke="rgba(50,50,50,1)" stroke-width="2" fill-opacity="1" fill="#4dd0e1"></path><g id="SvgjsG1116"><text id="SvgjsText1117" font-family="微软雅黑" text-anchor="middle" font-size="13px" width="60px" fill="#323232" font-weight="400" align="middle" lineHeight="125%" anchor="middle" family="微软雅黑" size="13px" weight="400" font-style="" opacity="1" y="7.375" transform="rotate(0)"><tspan id="SvgjsTspan1118" dy="16" x="40"><tspan id="SvgjsTspan1119" style="text-decoration:;">写入缓存</tspan></tspan></text></g></g><g id="SvgjsG1120" transform="translate(341.703125,661.5)"><path id="SvgjsPath1121" d="M 0 4Q 0 0 4 0L 96.25 0Q 100.25 0 100.25 4L 100.25 33Q 100.25 37 96.25 37L 4 37Q 0 37 0 33Z" stroke="rgba(50,50,50,1)" stroke-width="2" fill-opacity="1" fill="#f44336"></path><g id="SvgjsG1122"><text id="SvgjsText1123" font-family="微软雅黑" text-anchor="middle" font-size="13px" width="81px" fill="#323232" font-weight="400" align="middle" lineHeight="125%" anchor="middle" family="微软雅黑" size="13px" weight="400" font-style="" opacity="1" y="7.375" transform="rotate(0)"><tspan id="SvgjsTspan1124" dy="16" x="50.5"><tspan id="SvgjsTspan1125" style="text-decoration:;">脏数据产生</tspan></tspan></text></g></g><g id="SvgjsG1126" transform="translate(642.703125,634)"><path id="SvgjsPath1127" d="M 0 0L 120 0L 120 40L 0 40Z" stroke="none" fill="none"></path><g id="SvgjsG1128"><text id="SvgjsText1129" font-family="微软雅黑" text-anchor="middle" font-size="13px" width="120px" fill="#323232" font-weight="400" align="middle" lineHeight="125%" anchor="middle" family="微软雅黑" size="13px" weight="400" font-style="" opacity="1" y="8.875" transform="rotate(0)"></text></g></g><g id="SvgjsG1130" transform="translate(26.703125,660)"><path id="SvgjsPath1131" d="M 0 0L 120 0L 120 40L 0 40Z" stroke="none" fill="none"></path><g id="SvgjsG1132"><text id="SvgjsText1133" font-family="微软雅黑" text-anchor="middle" font-size="13px" width="120px" fill="#323232" font-weight="400" align="middle" lineHeight="125%" anchor="middle" family="微软雅黑" size="13px" weight="400" font-style="" opacity="1" y="8.875" transform="rotate(0)"><tspan id="SvgjsTspan1134" dy="16" x="60"><tspan id="SvgjsTspan1135" style="text-decoration:;">线程2</tspan></tspan></text></g></g><g id="SvgjsG1136" transform="translate(596.703125,648.5)"><path id="SvgjsPath1137" d="M 0 0L 120 0L 120 40L 0 40Z" stroke="none" fill="none"></path><g id="SvgjsG1138"><text id="SvgjsText1139" font-family="微软雅黑" text-anchor="middle" font-size="13px" width="120px" fill="#323232" font-weight="400" align="middle" lineHeight="125%" anchor="middle" family="微软雅黑" size="13px" weight="400" font-style="" opacity="1" y="8.875" transform="rotate(0)"><tspan id="SvgjsTspan1140" dy="16" x="60"><tspan id="SvgjsTspan1141" style="text-decoration:;">将旧值写入缓存</tspan></tspan></text></g></g><g id="SvgjsG1142" transform="translate(367.953125,241.5)"><path id="SvgjsPath1143" d="M 0 4Q 0 0 4 0L 135.5 0Q 139.5 0 139.5 4L 139.5 33Q 139.5 37 135.5 37L 4 37Q 0 37 0 33Z" stroke="rgba(50,50,50,1)" stroke-width="2" fill-opacity="1" fill="#4dd0e1"></path><g id="SvgjsG1144"><text id="SvgjsText1145" font-family="微软雅黑" text-anchor="middle" font-size="13px" width="120px" fill="#323232" font-weight="400" align="middle" lineHeight="125%" anchor="middle" family="微软雅黑" size="13px" weight="400" font-style="" opacity="1" y="7.375" transform="rotate(0)"><tspan id="SvgjsTspan1146" dy="16" x="70"><tspan id="SvgjsTspan1147" style="text-decoration:;">更新缓存</tspan></tspan></text></g></g><g id="SvgjsG1148" transform="translate(458.703125,765)"><path id="SvgjsPath1149" d="M 0 0L 199 0L 199 37L 0 37Z" stroke="none" fill="none"></path><g id="SvgjsG1150"><text id="SvgjsText1151" font-family="微软雅黑" text-anchor="middle" font-size="13px" width="199px" fill="#323232" font-weight="400" align="middle" lineHeight="125%" anchor="middle" family="微软雅黑" size="13px" weight="400" font-style="" opacity="1" y="7.375" transform="rotate(0)"><tspan id="SvgjsTspan1152" dy="16" x="99.5"><tspan id="SvgjsTspan1153" style="text-decoration:;">旁路模式：读</tspan></tspan></text></g></g><g id="SvgjsG1154" transform="translate(511.328125,876)"><path id="SvgjsPath1155" d="M 0 4Q 0 0 4 0L 81.375 0Q 85.375 0 85.375 4L 85.375 33Q 85.375 37 81.375 37L 4 37Q 0 37 0 33Z" stroke="rgba(50,50,50,1)" stroke-width="2" fill-opacity="1" fill="#e1bee7"></path><g id="SvgjsG1156"><text id="SvgjsText1157" font-family="微软雅黑" text-anchor="middle" font-size="13px" width="66px" fill="#323232" font-weight="400" align="middle" lineHeight="125%" anchor="middle" family="微软雅黑" size="13px" weight="400" font-style="" opacity="1" y="7.375" transform="rotate(0)"><tspan id="SvgjsTspan1158" dy="16" x="43"><tspan id="SvgjsTspan1159" style="text-decoration:;">查询缓存</tspan></tspan></text></g></g><g id="SvgjsG1160" transform="translate(534.015625,1068)"><path id="SvgjsPath1161" d="M 0 20C 0 -6.666666666666667 40 -6.666666666666667 40 20C 40 46.666666666666664 0 46.666666666666664 0 20Z" stroke="rgba(50,50,50,1)" stroke-width="4" fill-opacity="1" fill="#ffffff"></path><path id="SvgjsPath1162" d="M 10 20C 10 6.666666666666666 30 6.666666666666666 30 20C 30 33.333333333333336 10 33.333333333333336 10 20Z" stroke="none" fill-opacity="1" fill="#323232"></path><path id="SvgjsPath1163" d="M 0 20C 0 -6.666666666666667 40 -6.666666666666667 40 20C 40 46.666666666666664 0 46.666666666666664 0 20Z" stroke="none" fill="none"></path><g id="SvgjsG1164"><text id="SvgjsText1165" font-family="微软雅黑" text-anchor="middle" font-size="13px" width="80px" fill="#323232" font-weight="400" align="middle" lineHeight="125%" anchor="middle" family="微软雅黑" size="13px" weight="400" font-style="" opacity="1" y="43.875" transform="rotate(0)"></text></g></g><g id="SvgjsG1166"><path id="SvgjsPath1167" d="M554.015625 914L554.015625 990.5L554.015625 990.5L554.015625 1064.4" stroke="#323232" stroke-width="2" fill="none" marker-end="url(#SvgjsMarker1168)"></path><rect id="SvgjsRect1170" width="39" height="16" x="534.515625" y="981.2" fill="#ffffff"></rect><text id="SvgjsText1171" font-family="微软雅黑" text-anchor="middle" font-size="13px" width="39px" fill="#323232" font-weight="400" align="top" lineHeight="16px" anchor="middle" family="微软雅黑" size="13px" weight="400" font-style="" opacity="1" y="978.575" transform="rotate(0)"><tspan id="SvgjsTspan1172" dy="16" x="554.015625"><tspan id="SvgjsTspan1173" style="text-decoration:;">有数据</tspan></tspan></text></g><g id="SvgjsG1174" transform="translate(677.328125,876)"><path id="SvgjsPath1175" d="M 0 4Q 0 0 4 0L 81.375 0Q 85.375 0 85.375 4L 85.375 33Q 85.375 37 81.375 37L 4 37Q 0 37 0 33Z" stroke="rgba(50,50,50,1)" stroke-width="2" fill-opacity="1" fill="#ba68c8"></path><g id="SvgjsG1176"><text id="SvgjsText1177" font-family="微软雅黑" text-anchor="middle" font-size="13px" width="66px" fill="#323232" font-weight="400" align="middle" lineHeight="125%" anchor="middle" family="微软雅黑" size="13px" weight="400" font-style="" opacity="1" y="7.375" transform="rotate(0)"><tspan id="SvgjsTspan1178" dy="16" x="43"><tspan id="SvgjsTspan1179" style="text-decoration:;">查询数据库</tspan></tspan></text></g></g><g id="SvgjsG1180"><path id="SvgjsPath1181" d="M597.703125 894.5L637.015625 894.5L637.015625 894.5L673.728125 894.5" stroke="#323232" stroke-width="2" fill="none" marker-end="url(#SvgjsMarker1182)"></path><rect id="SvgjsRect1184" width="52" height="16" x="609.7156249999999" y="886.5" fill="#ffffff"></rect><text id="SvgjsText1185" font-family="微软雅黑" text-anchor="middle" font-size="13px" width="52px" fill="#323232" font-weight="400" align="top" lineHeight="16px" anchor="middle" family="微软雅黑" size="13px" weight="400" font-style="" opacity="1" y="883.875" transform="rotate(0)"><tspan id="SvgjsTspan1186" dy="16" x="635.7156249999999"><tspan id="SvgjsTspan1187" style="text-decoration:;">没有数据</tspan></tspan></text></g><g id="SvgjsG1188" transform="translate(680.140625,968.5)"><path id="SvgjsPath1189" d="M 0 4Q 0 0 4 0L 75.75 0Q 79.75 0 79.75 4L 79.75 33Q 79.75 37 75.75 37L 4 37Q 0 37 0 33Z" stroke="rgba(50,50,50,1)" stroke-width="2" fill-opacity="1" fill="#4dd0e1"></path><g id="SvgjsG1190"><text id="SvgjsText1191" font-family="微软雅黑" text-anchor="middle" font-size="13px" width="60px" fill="#323232" font-weight="400" align="middle" lineHeight="125%" anchor="middle" family="微软雅黑" size="13px" weight="400" font-style="" opacity="1" y="7.375" transform="rotate(0)"><tspan id="SvgjsTspan1192" dy="16" x="40"><tspan id="SvgjsTspan1193" style="text-decoration:;">写入缓存</tspan></tspan></text></g></g><g id="SvgjsG1194"><path id="SvgjsPath1195" d="M720.015625 914L720.015625 940.75L720.015625 940.75L720.015625 964.9000000000001" stroke="#323232" stroke-width="2" fill="none" marker-end="url(#SvgjsMarker1196)"></path></g><g id="SvgjsG1198"><path id="SvgjsPath1199" d="M720.015625 1006.5L720.015625 1088L577.615625 1088" stroke="#323232" stroke-width="2" fill="none" marker-end="url(#SvgjsMarker1200)"></path></g><g id="SvgjsG1202" transform="translate(192.703125,765)"><path id="SvgjsPath1203" d="M 0 0L 199 0L 199 37L 0 37Z" stroke="none" fill="none"></path><g id="SvgjsG1204"><text id="SvgjsText1205" font-family="微软雅黑" text-anchor="middle" font-size="13px" width="199px" fill="#323232" font-weight="400" align="middle" lineHeight="125%" anchor="middle" family="微软雅黑" size="13px" weight="400" font-style="" opacity="1" y="7.375" transform="rotate(0)"><tspan id="SvgjsTspan1206" dy="16" x="99.5"><tspan id="SvgjsTspan1207" style="text-decoration:;">旁路模式：写</tspan></tspan></text></g></g><g id="SvgjsG1208" transform="translate(534.015625,814)"><path id="SvgjsPath1209" d="M 0 20C 0 -6.666666666666667 40 -6.666666666666667 40 20C 40 46.666666666666664 0 46.666666666666664 0 20Z" stroke="none" fill-opacity="1" fill="#323232"></path><g id="SvgjsG1210"><text id="SvgjsText1211" font-family="微软雅黑" text-anchor="middle" font-size="13px" width="80px" fill="#323232" font-weight="400" align="middle" lineHeight="125%" anchor="middle" family="微软雅黑" size="13px" weight="400" font-style="" opacity="1" y="43.875" transform="rotate(0)"></text></g></g><g id="SvgjsG1212"><path id="SvgjsPath1213" d="M554.015625 855L554.015625 865L554.015625 865L554.015625 872.4" stroke="#323232" stroke-width="2" fill="none" marker-end="url(#SvgjsMarker1214)"></path></g><g id="SvgjsG1216" transform="translate(272.203125,814)"><path id="SvgjsPath1217" d="M 0 20C 0 -6.666666666666667 40 -6.666666666666667 40 20C 40 46.666666666666664 0 46.666666666666664 0 20Z" stroke="none" fill-opacity="1" fill="#323232"></path><g id="SvgjsG1218"><text id="SvgjsText1219" font-family="微软雅黑" text-anchor="middle" font-size="13px" width="80px" fill="#323232" font-weight="400" align="middle" lineHeight="125%" anchor="middle" family="微软雅黑" size="13px" weight="400" font-style="" opacity="1" y="43.875" transform="rotate(0)"></text></g></g><g id="SvgjsG1220" transform="translate(231.953125,876)"><path id="SvgjsPath1221" d="M 0 4Q 0 0 4 0L 116.5 0Q 120.5 0 120.5 4L 120.5 33Q 120.5 37 116.5 37L 4 37Q 0 37 0 33Z" stroke="rgba(50,50,50,1)" stroke-width="2" fill-opacity="1" fill="#fff176"></path><g id="SvgjsG1222"><text id="SvgjsText1223" font-family="微软雅黑" text-anchor="middle" font-size="13px" width="101px" fill="#323232" font-weight="400" align="middle" lineHeight="125%" anchor="middle" family="微软雅黑" size="13px" weight="400" font-style="" opacity="1" y="7.375" transform="rotate(0)"><tspan id="SvgjsTspan1224" dy="16" x="60.5"><tspan id="SvgjsTspan1225" style="text-decoration:;">更新数据库</tspan></tspan></text></g></g><g id="SvgjsG1226"><path id="SvgjsPath1227" d="M292.203125 855L292.203125 865L292.203125 865L292.203125 872.4" stroke="#323232" stroke-width="2" fill="none" marker-end="url(#SvgjsMarker1228)"></path></g><g id="SvgjsG1230"><path id="SvgjsPath1231" d="M292.203125 914L292.203125 938L292.203125 938L292.203125 963" stroke="#323232" stroke-width="2" fill="none" marker-end="url(#SvgjsMarker1232)"></path></g><g id="SvgjsG1234" transform="translate(225.703125,964.5)"><path id="SvgjsPath1235" d="M 0 4Q 0 0 4 0L 129 0Q 133 0 133 4L 133 33Q 133 37 129 37L 4 37Q 0 37 0 33Z" stroke="rgba(50,50,50,1)" stroke-width="2" fill-opacity="1" fill="#e57373"></path><g id="SvgjsG1236"><text id="SvgjsText1237" font-family="微软雅黑" text-anchor="middle" font-size="13px" width="113px" fill="#323232" font-weight="400" align="middle" lineHeight="125%" anchor="middle" family="微软雅黑" size="13px" weight="400" font-style="" opacity="1" y="7.375" transform="rotate(0)"><tspan id="SvgjsTspan1238" dy="16" x="66.5"><tspan id="SvgjsTspan1239" style="text-decoration:;">删除缓存</tspan></tspan></text></g></g><g id="SvgjsG1240"><path id="SvgjsPath1241" d="M292.203125 1002.5L292.203125 1034.75L292.203125 1034.75L292.203125 1064.4" stroke="#323232" stroke-width="2" fill="none" marker-end="url(#SvgjsMarker1242)"></path></g><g id="SvgjsG1244" transform="translate(272.203125,1068)"><path id="SvgjsPath1245" d="M 0 20C 0 -6.666666666666667 40 -6.666666666666667 40 20C 40 46.666666666666664 0 46.666666666666664 0 20Z" stroke="rgba(50,50,50,1)" stroke-width="4" fill-opacity="1" fill="#ffffff"></path><path id="SvgjsPath1246" d="M 10 20C 10 6.666666666666666 30 6.666666666666666 30 20C 30 33.333333333333336 10 33.333333333333336 10 20Z" stroke="none" fill-opacity="1" fill="#323232"></path><path id="SvgjsPath1247" d="M 0 20C 0 -6.666666666666667 40 -6.666666666666667 40 20C 40 46.666666666666664 0 46.666666666666664 0 20Z" stroke="none" fill="none"></path><g id="SvgjsG1248"><text id="SvgjsText1249" font-family="微软雅黑" text-anchor="middle" font-size="13px" width="80px" fill="#323232" font-weight="400" align="middle" lineHeight="125%" anchor="middle" family="微软雅黑" size="13px" weight="400" font-style="" opacity="1" y="43.875" transform="rotate(0)"></text></g></g><g id="SvgjsG1250" transform="translate(33.515625,1228)"><path id="SvgjsPath1251" d="M 0 0L 1041 0L 1041 219L 0 219Z" stroke="rgba(50,50,50,1)" stroke-width="2" fill-opacity="1" fill="#ffffff"></path><g id="SvgjsG1252"><text id="SvgjsText1253" font-family="微软雅黑" text-anchor="middle" font-size="13px" width="1021px" fill="#323232" font-weight="400" align="middle" lineHeight="125%" anchor="middle" family="微软雅黑" size="13px" weight="400" font-style="" opacity="1" y="98.375" transform="rotate(0)"></text></g></g><g id="SvgjsG1254"><path id="SvgjsPath1255" d="M160.109375 1299L558.609375 1299L558.609375 1299L957.109375 1299" stroke="#323232" stroke-width="2" fill="none" marker-end="url(#SvgjsMarker1256)"></path><rect id="SvgjsRect1258" width="39" height="16" x="539.109375" y="1291" fill="#ffffff"></rect><text id="SvgjsText1259" font-family="微软雅黑" text-anchor="middle" font-size="13px" width="39px" fill="#323232" font-weight="400" align="top" lineHeight="16px" anchor="middle" family="微软雅黑" size="13px" weight="400" font-style="" opacity="1" y="1288.375" transform="rotate(0)"><tspan id="SvgjsTspan1260" dy="16" x="558.609375"><tspan id="SvgjsTspan1261" style="text-decoration:;">时间轴</tspan></tspan></text></g><g id="SvgjsG1262" transform="translate(30.109375,1334.5)"><path id="SvgjsPath1263" d="M 0 0L 120 0L 120 37L 0 37Z" stroke="none" fill="none"></path><g id="SvgjsG1264"><text id="SvgjsText1265" font-family="微软雅黑" text-anchor="middle" font-size="13px" width="120px" fill="#323232" font-weight="400" align="middle" lineHeight="125%" anchor="middle" family="微软雅黑" size="13px" weight="400" font-style="" opacity="1" y="7.375" transform="rotate(0)"><tspan id="SvgjsTspan1266" dy="16" x="60"><tspan id="SvgjsTspan1267" style="text-decoration:;">线程1</tspan></tspan></text></g></g><g id="SvgjsG1268" transform="translate(272.203125,1332.25)"><path id="SvgjsPath1269" d="M 0 4Q 0 0 4 0L 76.25 0Q 80.25 0 80.25 4L 80.25 33Q 80.25 37 76.25 37L 4 37Q 0 37 0 33Z" stroke="rgba(50,50,50,1)" stroke-width="2" fill-opacity="1" fill="#e57373"></path><g id="SvgjsG1270"><text id="SvgjsText1271" font-family="微软雅黑" text-anchor="middle" font-size="13px" width="61px" fill="#323232" font-weight="400" align="middle" lineHeight="125%" anchor="middle" family="微软雅黑" size="13px" weight="400" font-style="" opacity="1" y="7.375" transform="rotate(0)"><tspan id="SvgjsTspan1272" dy="16" x="40.5"><tspan id="SvgjsTspan1273" style="text-decoration:;">删除缓存</tspan></tspan></text></g></g><g id="SvgjsG1274" transform="translate(462.109375,1229)"><path id="SvgjsPath1275" d="M 0 0L 199 0L 199 37L 0 37Z" stroke="none" fill="none"></path><g id="SvgjsG1276"><text id="SvgjsText1277" font-family="微软雅黑" text-anchor="middle" font-size="13px" width="199px" fill="#323232" font-weight="400" align="middle" lineHeight="125%" anchor="middle" family="微软雅黑" size="13px" weight="400" font-style="" opacity="1" y="7.375" transform="rotate(0)"><tspan id="SvgjsTspan1278" dy="16" x="99.5"><tspan id="SvgjsTspan1279" style="text-decoration:;">旁路模式可能出现的问题</tspan></tspan></text></g></g><g id="SvgjsG1280" transform="translate(172.609375,1332.25)"><path id="SvgjsPath1281" d="M 0 4Q 0 0 4 0L 94 0Q 98 0 98 4L 98 33Q 98 37 94 37L 4 37Q 0 37 0 33Z" stroke="rgba(50,50,50,1)" stroke-width="2" fill-opacity="1" fill="#fff176"></path><g id="SvgjsG1282"><text id="SvgjsText1283" font-family="微软雅黑" text-anchor="middle" font-size="13px" width="78px" fill="#323232" font-weight="400" align="middle" lineHeight="125%" anchor="middle" family="微软雅黑" size="13px" weight="400" font-style="" opacity="1" y="7.375" transform="rotate(0)"><tspan id="SvgjsTspan1284" dy="16" x="49"><tspan id="SvgjsTspan1285" style="text-decoration:;">更新数据库</tspan></tspan></text></g></g><g id="SvgjsG1286" transform="translate(157.703125,1386)"><path id="SvgjsPath1287" d="M 0 4Q 0 0 4 0L 123.8125 0Q 127.8125 0 127.8125 4L 127.8125 30Q 127.8125 34 123.8125 34L 4 34Q 0 34 0 30Z" stroke="rgba(50,50,50,1)" stroke-width="2" fill-opacity="1" fill="#ba68c8"></path><g id="SvgjsG1288"><text id="SvgjsText1289" font-family="微软雅黑" text-anchor="middle" font-size="13px" width="108px" fill="#323232" font-weight="400" align="middle" lineHeight="125%" anchor="middle" family="微软雅黑" size="13px" weight="400" font-style="" opacity="1" y="5.875" transform="rotate(0)"><tspan id="SvgjsTspan1290" dy="16" x="64"><tspan id="SvgjsTspan1291" style="text-decoration:;">查询数据库</tspan></tspan></text></g></g><g id="SvgjsG1292" transform="translate(285.515625,1384.5)"><path id="SvgjsPath1293" d="M 0 4Q 0 0 4 0L 75.75 0Q 79.75 0 79.75 4L 79.75 33Q 79.75 37 75.75 37L 4 37Q 0 37 0 33Z" stroke="rgba(50,50,50,1)" stroke-width="2" fill-opacity="1" fill="#4dd0e1"></path><g id="SvgjsG1294"><text id="SvgjsText1295" font-family="微软雅黑" text-anchor="middle" font-size="13px" width="60px" fill="#323232" font-weight="400" align="middle" lineHeight="125%" anchor="middle" family="微软雅黑" size="13px" weight="400" font-style="" opacity="1" y="7.375" transform="rotate(0)"><tspan id="SvgjsTspan1296" dy="16" x="40"><tspan id="SvgjsTspan1297" style="text-decoration:;">写入缓存</tspan></tspan></text></g></g><g id="SvgjsG1298" transform="translate(367.328125,1384.5)"><path id="SvgjsPath1299" d="M 0 4Q 0 0 4 0L 96.25 0Q 100.25 0 100.25 4L 100.25 33Q 100.25 37 96.25 37L 4 37Q 0 37 0 33Z" stroke="rgba(50,50,50,1)" stroke-width="2" fill-opacity="1" fill="#f44336"></path><g id="SvgjsG1300"><text id="SvgjsText1301" font-family="微软雅黑" text-anchor="middle" font-size="13px" width="81px" fill="#323232" font-weight="400" align="middle" lineHeight="125%" anchor="middle" family="微软雅黑" size="13px" weight="400" font-style="" opacity="1" y="7.375" transform="rotate(0)"><tspan id="SvgjsTspan1302" dy="16" x="50.5"><tspan id="SvgjsTspan1303" style="text-decoration:;">脏数据产生</tspan></tspan></text></g></g><g id="SvgjsG1304" transform="translate(646.109375,1357)"><path id="SvgjsPath1305" d="M 0 0L 120 0L 120 40L 0 40Z" stroke="none" fill="none"></path><g id="SvgjsG1306"><text id="SvgjsText1307" font-family="微软雅黑" text-anchor="middle" font-size="13px" width="120px" fill="#323232" font-weight="400" align="middle" lineHeight="125%" anchor="middle" family="微软雅黑" size="13px" weight="400" font-style="" opacity="1" y="8.875" transform="rotate(0)"></text></g></g><g id="SvgjsG1308" transform="translate(30.109375,1383)"><path id="SvgjsPath1309" d="M 0 0L 120 0L 120 40L 0 40Z" stroke="none" fill="none"></path><g id="SvgjsG1310"><text id="SvgjsText1311" font-family="微软雅黑" text-anchor="middle" font-size="13px" width="120px" fill="#323232" font-weight="400" align="middle" lineHeight="125%" anchor="middle" family="微软雅黑" size="13px" weight="400" font-style="" opacity="1" y="8.875" transform="rotate(0)"><tspan id="SvgjsTspan1312" dy="16" x="60"><tspan id="SvgjsTspan1313" style="text-decoration:;">线程2</tspan></tspan></text></g></g><g id="SvgjsG1314" transform="translate(487.203125,1381.5)"><path id="SvgjsPath1315" d="M 0 0L 120 0L 120 40L 0 40Z" stroke="none" fill="none"></path><g id="SvgjsG1316"><text id="SvgjsText1317" font-family="微软雅黑" text-anchor="middle" font-size="13px" width="120px" fill="#323232" font-weight="400" align="middle" lineHeight="125%" anchor="middle" family="微软雅黑" size="13px" weight="400" font-style="" opacity="1" y="8.875" transform="rotate(0)"><tspan id="SvgjsTspan1318" dy="16" x="60"><tspan id="SvgjsTspan1319" style="text-decoration:;">将旧值写入缓存</tspan></tspan></text></g></g><g id="SvgjsG1320" transform="translate(33.515625,1522)"><path id="SvgjsPath1321" d="M 0 0L 1041 0L 1041 219L 0 219Z" stroke="rgba(50,50,50,1)" stroke-width="2" fill-opacity="1" fill="#ffffff"></path><g id="SvgjsG1322"><text id="SvgjsText1323" font-family="微软雅黑" text-anchor="middle" font-size="13px" width="1021px" fill="#323232" font-weight="400" align="middle" lineHeight="125%" anchor="middle" family="微软雅黑" size="13px" weight="400" font-style="" opacity="1" y="98.375" transform="rotate(0)"></text></g></g><g id="SvgjsG1324"><path id="SvgjsPath1325" d="M155 1593L553.5 1593L553.5 1593L952 1593" stroke="#323232" stroke-width="2" fill="none" marker-end="url(#SvgjsMarker1326)"></path><rect id="SvgjsRect1328" width="39" height="16" x="534" y="1585" fill="#ffffff"></rect><text id="SvgjsText1329" font-family="微软雅黑" text-anchor="middle" font-size="13px" width="39px" fill="#323232" font-weight="400" align="top" lineHeight="16px" anchor="middle" family="微软雅黑" size="13px" weight="400" font-style="" opacity="1" y="1582.375" transform="rotate(0)"><tspan id="SvgjsTspan1330" dy="16" x="553.5"><tspan id="SvgjsTspan1331" style="text-decoration:;">时间轴</tspan></tspan></text></g><g id="SvgjsG1332" transform="translate(25,1628.5)"><path id="SvgjsPath1333" d="M 0 0L 120 0L 120 37L 0 37Z" stroke="none" fill="none"></path><g id="SvgjsG1334"><text id="SvgjsText1335" font-family="微软雅黑" text-anchor="middle" font-size="13px" width="120px" fill="#323232" font-weight="400" align="middle" lineHeight="125%" anchor="middle" family="微软雅黑" size="13px" weight="400" font-style="" opacity="1" y="7.375" transform="rotate(0)"><tspan id="SvgjsTspan1336" dy="16" x="60"><tspan id="SvgjsTspan1337" style="text-decoration:;">线程1</tspan></tspan></text></g></g><g id="SvgjsG1338" transform="translate(261.703125,1626.25)"><path id="SvgjsPath1339" d="M 0 4Q 0 0 4 0L 76.25 0Q 80.25 0 80.25 4L 80.25 33Q 80.25 37 76.25 37L 4 37Q 0 37 0 33Z" stroke="rgba(50,50,50,1)" stroke-width="2" fill-opacity="1" fill="#e57373"></path><g id="SvgjsG1340"><text id="SvgjsText1341" font-family="微软雅黑" text-anchor="middle" font-size="13px" width="61px" fill="#323232" font-weight="400" align="middle" lineHeight="125%" anchor="middle" family="微软雅黑" size="13px" weight="400" font-style="" opacity="1" y="7.375" transform="rotate(0)"><tspan id="SvgjsTspan1342" dy="16" x="40.5"><tspan id="SvgjsTspan1343" style="text-decoration:;">删除缓存</tspan></tspan></text></g></g><g id="SvgjsG1344" transform="translate(457,1523)"><path id="SvgjsPath1345" d="M 0 0L 199 0L 199 37L 0 37Z" stroke="none" fill="none"></path><g id="SvgjsG1346"><text id="SvgjsText1347" font-family="微软雅黑" text-anchor="middle" font-size="13px" width="199px" fill="#323232" font-weight="400" align="middle" lineHeight="125%" anchor="middle" family="微软雅黑" size="13px" weight="400" font-style="" opacity="1" y="7.375" transform="rotate(0)"><tspan id="SvgjsTspan1348" dy="16" x="99.5"><tspan id="SvgjsTspan1349" style="text-decoration:;">旁路模式延迟双删</tspan></tspan></text></g></g><g id="SvgjsG1350" transform="translate(167.5,1626.25)"><path id="SvgjsPath1351" d="M 0 4Q 0 0 4 0L 94 0Q 98 0 98 4L 98 33Q 98 37 94 37L 4 37Q 0 37 0 33Z" stroke="rgba(50,50,50,1)" stroke-width="2" fill-opacity="1" fill="#fff176"></path><g id="SvgjsG1352"><text id="SvgjsText1353" font-family="微软雅黑" text-anchor="middle" font-size="13px" width="78px" fill="#323232" font-weight="400" align="middle" lineHeight="125%" anchor="middle" family="微软雅黑" size="13px" weight="400" font-style="" opacity="1" y="7.375" transform="rotate(0)"><tspan id="SvgjsTspan1354" dy="16" x="49"><tspan id="SvgjsTspan1355" style="text-decoration:;">更新数据库</tspan></tspan></text></g></g><g id="SvgjsG1356" transform="translate(152.59375,1678.5)"><path id="SvgjsPath1357" d="M 0 4Q 0 0 4 0L 123.8125 0Q 127.8125 0 127.8125 4L 127.8125 30Q 127.8125 34 123.8125 34L 4 34Q 0 34 0 30Z" stroke="rgba(50,50,50,1)" stroke-width="2" fill-opacity="1" fill="#ba68c8"></path><g id="SvgjsG1358"><text id="SvgjsText1359" font-family="微软雅黑" text-anchor="middle" font-size="13px" width="108px" fill="#323232" font-weight="400" align="middle" lineHeight="125%" anchor="middle" family="微软雅黑" size="13px" weight="400" font-style="" opacity="1" y="5.875" transform="rotate(0)"><tspan id="SvgjsTspan1360" dy="16" x="64"><tspan id="SvgjsTspan1361" style="text-decoration:;">查询数据库</tspan></tspan></text></g></g><g id="SvgjsG1362" transform="translate(280.40625,1677)"><path id="SvgjsPath1363" d="M 0 4Q 0 0 4 0L 75.75 0Q 79.75 0 79.75 4L 79.75 33Q 79.75 37 75.75 37L 4 37Q 0 37 0 33Z" stroke="rgba(50,50,50,1)" stroke-width="2" fill-opacity="1" fill="#4dd0e1"></path><g id="SvgjsG1364"><text id="SvgjsText1365" font-family="微软雅黑" text-anchor="middle" font-size="13px" width="60px" fill="#323232" font-weight="400" align="middle" lineHeight="125%" anchor="middle" family="微软雅黑" size="13px" weight="400" font-style="" opacity="1" y="7.375" transform="rotate(0)"><tspan id="SvgjsTspan1366" dy="16" x="40"><tspan id="SvgjsTspan1367" style="text-decoration:;">写入缓存</tspan></tspan></text></g></g><g id="SvgjsG1368" transform="translate(356.75,1677)"><path id="SvgjsPath1369" d="M 0 4Q 0 0 4 0L 96.25 0Q 100.25 0 100.25 4L 100.25 33Q 100.25 37 96.25 37L 4 37Q 0 37 0 33Z" stroke="rgba(50,50,50,1)" stroke-width="2" fill-opacity="1" fill="#f44336"></path><g id="SvgjsG1370"><text id="SvgjsText1371" font-family="微软雅黑" text-anchor="middle" font-size="13px" width="81px" fill="#323232" font-weight="400" align="middle" lineHeight="125%" anchor="middle" family="微软雅黑" size="13px" weight="400" font-style="" opacity="1" y="7.375" transform="rotate(0)"><tspan id="SvgjsTspan1372" dy="16" x="50.5"><tspan id="SvgjsTspan1373" style="text-decoration:;">脏数据产生</tspan></tspan></text></g></g><g id="SvgjsG1374" transform="translate(641,1651)"><path id="SvgjsPath1375" d="M 0 0L 120 0L 120 40L 0 40Z" stroke="none" fill="none"></path><g id="SvgjsG1376"><text id="SvgjsText1377" font-family="微软雅黑" text-anchor="middle" font-size="13px" width="120px" fill="#323232" font-weight="400" align="middle" lineHeight="125%" anchor="middle" family="微软雅黑" size="13px" weight="400" font-style="" opacity="1" y="8.875" transform="rotate(0)"></text></g></g><g id="SvgjsG1378" transform="translate(25,1677)"><path id="SvgjsPath1379" d="M 0 0L 120 0L 120 40L 0 40Z" stroke="none" fill="none"></path><g id="SvgjsG1380"><text id="SvgjsText1381" font-family="微软雅黑" text-anchor="middle" font-size="13px" width="120px" fill="#323232" font-weight="400" align="middle" lineHeight="125%" anchor="middle" family="微软雅黑" size="13px" weight="400" font-style="" opacity="1" y="8.875" transform="rotate(0)"><tspan id="SvgjsTspan1382" dy="16" x="60"><tspan id="SvgjsTspan1383" style="text-decoration:;">线程2</tspan></tspan></text></g></g><g id="SvgjsG1384" transform="translate(496.5,1624.75)"><path id="SvgjsPath1385" d="M 0 0L 120 0L 120 40L 0 40Z" stroke="none" fill="none"></path><g id="SvgjsG1386"><text id="SvgjsText1387" font-family="微软雅黑" text-anchor="middle" font-size="13px" width="120px" fill="#323232" font-weight="400" align="middle" lineHeight="125%" anchor="middle" family="微软雅黑" size="13px" weight="400" font-style="" opacity="1" y="8.875" transform="rotate(0)"><tspan id="SvgjsTspan1388" dy="16" x="60"><tspan id="SvgjsTspan1389" style="text-decoration:;">将旧值删除</tspan></tspan></text></g></g><g id="SvgjsG1390" transform="translate(341.703125,1626.25)"><path id="SvgjsPath1391" d="M 0 4Q 0 0 4 0L 65 0Q 69 0 69 4L 69 33Q 69 37 65 37L 4 37Q 0 37 0 33Z" stroke="rgba(50,50,50,1)" stroke-width="2" fill-opacity="1" fill="#ffffff"></path><g id="SvgjsG1392"><text id="SvgjsText1393" font-family="微软雅黑" text-anchor="middle" font-size="13px" width="49px" fill="#323232" font-weight="400" align="middle" lineHeight="125%" anchor="middle" family="微软雅黑" size="13px" weight="400" font-style="" opacity="1" y="7.375" transform="rotate(0)"><tspan id="SvgjsTspan1394" dy="16" x="34.5"><tspan id="SvgjsTspan1395" style="text-decoration:;">n秒</tspan></tspan></text></g></g><g id="SvgjsG1396" transform="translate(406.953125,1626.25)"><path id="SvgjsPath1397" d="M 0 4Q 0 0 4 0L 76.25 0Q 80.25 0 80.25 4L 80.25 33Q 80.25 37 76.25 37L 4 37Q 0 37 0 33Z" stroke="rgba(50,50,50,1)" stroke-width="2" fill-opacity="1" fill="#e57373"></path><g id="SvgjsG1398"><text id="SvgjsText1399" font-family="微软雅黑" text-anchor="middle" font-size="13px" width="61px" fill="#323232" font-weight="400" align="middle" lineHeight="125%" anchor="middle" family="微软雅黑" size="13px" weight="400" font-style="" opacity="1" y="7.375" transform="rotate(0)"><tspan id="SvgjsTspan1400" dy="16" x="40.5"><tspan id="SvgjsTspan1401" style="text-decoration:;">删除缓存</tspan></tspan></text></g></g></svg>